<svg id="Layer_1" data-name="Layer 1" xmlns="http://www.w3.org/2000/svg" viewBox="0 0 926.8 291.94"><defs><style>.cls-1{font-size:90px;stroke:#b33541;stroke-miterlimit:10;stroke-width:2px;font-family:TrebuchetMS, Trebuchet MS;letter-spacing:0.06em;}.cls-1,.cls-3{fill:#b33541;}.cls-2{letter-spacing:0.04em;}.cls-4,.cls-5{fill:#fff;}.cls-5{font-size:25px;font-family:MyriadPro-Regular, Myriad Pro;letter-spacing:0.06em;}</style></defs><title>logo-hibopay</title><text class="cls-1" transform="translate(373.83 131.27)">HIBO MONE<tspan class="cls-2" x="497.32" y="0">Y</tspan><tspan x="53.05" y="108">TRANSFER</tspan></text><path class="cls-3" d="M91.67,273.6c-30.44-24-52.93-76.51-37.49-130.11C68.73,93,116.65,49.34,181.38,52.78c50.27,2.67,99.42,37.87,113.82,96.37,12.34,50.16-8.41,99.67-38.85,124.34v-6.3c0-47.33-.09-94.66.13-142,0-5.21-1.52-6.53-6.46-6.32-8.81.37-17.66.34-26.48,0-4.54-.17-5.6,1.49-5.57,5.75.17,24.83,0,49.66.18,74.49,0,4.69-1.48,5.82-6,5.78q-37.75-.28-75.5,0c-4.49,0-5.58-1.34-5.55-5.66.19-25,0-50,.18-75,0-4.13-1.17-5.5-5.35-5.38-9.32.27-18.67.32-28,0-4.64-.17-5.87,1.36-5.86,5.91.16,47.66.1,95.32.07,143C92.19,269.69,92.72,271.71,91.67,273.6Z" transform="translate(-8.1 -14.03)"/><path class="cls-3" d="M319.54,173.55l-1.25-9.29c-8.22-66.45-59-117.49-121.13-126.65-50-7.37-92.78,7.15-127.79,43.5-23.83,24.76-36.95,54.58-39.24,89-.09,1.44-.15,3.49-.15,3.49H8.1s0-1.87.11-3.35c2-29.17,10.79-56.12,26.91-80.51C60.46,51.38,95.67,26.8,140.64,17.53c72.79-15,145.29,19.09,180.71,85.56,11,20.59,16.83,42.62,18.95,65.73l.38,4.77Z" transform="translate(-8.1 -14.03)"/><path class="cls-3" d="M174.6,239.15c12.65,0,25.3.18,38-.1,4.52-.11,5.64,1.47,5.58,5.74-.21,16.15-.15,32.29,0,48.44,0,3.28-.87,5-4.24,6.15-25.94,8.53-51.85,8.83-77.93.61-3.72-1.17-4.82-3-4.78-6.74.18-16.14.27-32.29,0-48.44-.09-4.84,1.7-5.82,6-5.74C149.63,239.29,162.11,239.15,174.6,239.15Z" transform="translate(-8.1 -14.03)"/><path class="cls-4" d="M201.08,83.69c3,6.41-.37,12.47-8.2,14-12.22,2.34-24.41,2.25-36.43-1.48a25.34,25.34,0,0,1-7.55-3.73c-3.05-2.22-3.88-4.76-1.44-8.5,2.55,6.38,8.08,8.36,13.73,9.18C175.47,95.22,188.89,92.83,201.08,83.69Z" transform="translate(-8.1 -14.03)"/><path class="cls-4" d="M145.5,96.52c10.84,11.48,23.55,10.5,36.4,8a43.39,43.39,0,0,0,18.47-8.18c.75-.59,1.6-1.72,2.48-.84.55.56.51,1.89.43,2.84-.51,5.69-4.78,8.55-9.3,9.93-13.73,4.17-27.54,4.34-40.8-2C149.59,104.5,145.54,102.6,145.5,96.52Z" transform="translate(-8.1 -14.03)"/><path class="cls-4" d="M153.83,74.08c1.35,5.71,5.26,7.49,10.08,7.73,10.41.52,20.69.24,29.19-7.07,1.48-1.27,2.32-.62,3.32.44,1.72,1.85,2.67,3.88,1.29,6.3s-3.9,3.68-6.44,4.42a51.56,51.56,0,0,1-36.43-2.73C149.91,81,149.69,78.37,153.83,74.08Z" transform="translate(-8.1 -14.03)"/><path class="cls-4" d="M173,76.69a26,26,0,0,1-12.63-2.06c-3.64-1.7-3.73-3.42-.49-5.63,7-4.79,21.5-4.9,28.6-.31,3.34,2.15,2.55,3.84-.46,5.28A30.87,30.87,0,0,1,173,76.69Z" transform="translate(-8.1 -14.03)"/><path class="cls-4" d="M158.45,113.69c14.31,3.85,27.83,1.81,41.15-5.86-1.81,5.18-5.62,7.43-9.8,8.76-11.31,3.58-22.54,3.31-33.44-1.8C156.34,113.05,157.27,113.13,158.45,113.69Z" transform="translate(-8.1 -14.03)"/><path class="cls-4" d="M186.18,120.38c-8.13,4.45-16.24,4.2-24.33-.1A107.59,107.59,0,0,0,186.18,120.38Z" transform="translate(-8.1 -14.03)"/><path class="cls-4" d="M158.45,113.69l-2.09,1.1a11.65,11.65,0,0,1-6.91-5.61Z" transform="translate(-8.1 -14.03)"/><text class="cls-5" transform="translate(7.95 142.82)">$</text><text class="cls-5" transform="translate(312.43 142.82)">$</text></svg>